<?xml version="1.0" encoding="UTF-8"?>
<svg version="1.1" xmlns="http://www.w3.org/2000/svg" width="200" height="200">
<path d="M0 0 C2.24940295 -0.08119503 4.49964871 -0.13927819 6.75 -0.1875 C8.00296875 -0.22230469 9.2559375 -0.25710937 10.546875 -0.29296875 C14.15780496 0.01338843 15.58104807 0.33915287 18 3 C18.25 6.6875 18.25 6.6875 18 10 C17.34 10 16.68 10 16 10 C16 9.01 16 8.02 16 7 C15.21625 6.690625 14.4325 6.38125 13.625 6.0625 C11 5 11 5 9 4 C2.93245172 3.40514233 -0.14444878 4.60111415 -5 8 C-6.91855553 13.75566659 -6.19532609 20.12298006 -5 26 C-3.14853436 27.46804363 -3.14853436 27.46804363 -1 28 C-0.34 28.66 0.32 29.32 1 30 C1.99 30.33 2.98 30.66 4 31 C4.639375 31.226875 5.27875 31.45375 5.9375 31.6875 C8.58826158 32.08913054 9.75838776 31.39134553 12 30 C12.33 29.67 12.66 29.34 13 29 C12.89582173 26.99660454 12.89582173 26.99660454 12 25 C10.0162233 23.71563266 10.0162233 23.71563266 8 23 C8.33 22.01 8.66 21.02 9 20 C13.40914783 18.89771304 17.48382401 18.92345464 22 19 C22.33 18.34 22.66 17.68 23 17 C23.66 17 24.32 17 25 17 C25.0825 15.96875 25.165 14.9375 25.25 13.875 C26.06463946 9.66602943 27.32915914 7.31831743 30 4 C30.66 4 31.32 4 32 4 C32.33 3.34 32.66 2.68 33 2 C33.99 2 34.98 2 36 2 C36 1.34 36 0.68 36 0 C38.41854446 -0.13536629 40.82949783 -0.23420279 43.25 -0.3125 C44.27287109 -0.3753418 44.27287109 -0.3753418 45.31640625 -0.43945312 C49.11236577 -0.53158806 50.6566066 -0.32165964 53.46875 2.3125 C55.26413166 5.46357802 55.33215091 7.42937777 55 11 C54.34 11 53.68 11 53 11 C52.9175 10.38125 52.835 9.7625 52.75 9.125 C52.19392091 6.82618538 52.19392091 6.82618538 50 5.8125 C49.34 5.544375 48.68 5.27625 48 5 C47.505 4.505 47.505 4.505 47 4 C45.48530552 3.76807135 43.96245438 3.58784762 42.4375 3.4375 C41.19806641 3.31181641 41.19806641 3.31181641 39.93359375 3.18359375 C39.29550781 3.12300781 38.65742188 3.06242187 38 3 C37.67 3.66 37.34 4.32 37 5 C36.071875 5.12375 36.071875 5.12375 35.125 5.25 C32.7125 5.8625 32.7125 5.8625 31.25 8.625 C29.36038214 13.72696823 29.3346274 17.79484902 31.375 22.8125 C33.52835762 27.03639379 35.06067822 28.2019939 39.4375 29.625 C40.61119141 30.01558594 40.61119141 30.01558594 41.80859375 30.4140625 C45.59934357 31.42763197 47.66426749 30.84040414 51 29 C48.96197865 24.93975679 48.96197865 24.93975679 45 23 C45 22.01 45 21.02 45 20 C46.41543415 19.80341192 47.83244031 19.61812454 49.25 19.4375 C50.03890625 19.33308594 50.8278125 19.22867188 51.640625 19.12109375 C54.00532874 18.99972651 55.7511037 19.30366743 58 20 C57.69024532 21.77131561 57.37709575 23.54203778 57.0625 25.3125 C56.88847656 26.29863281 56.71445313 27.28476563 56.53515625 28.30078125 C56 31 56 31 55 34 C49.60606544 37.59595637 42.29497911 36.48568476 36 36 C30.89273394 34.76061459 28.52563412 31.50731321 25.75 27.25 C25.29109375 26.45078125 24.8321875 25.6515625 24.359375 24.828125 C23.91078125 24.22484375 23.4621875 23.6215625 23 23 C22.01 23 21.02 23 20 23 C20.04125 24.258125 20.0825 25.51625 20.125 26.8125 C20.2390374 30.29064073 20.05925681 30.91111478 18 34 C14.32675811 36.44882793 11.44431556 36.40276624 7.1875 36.4375 C6.48818359 36.47037109 5.78886719 36.50324219 5.06835938 36.53710938 C1.09663563 36.57797838 -1.29660779 36.1591708 -4.42578125 33.6171875 C-6.60555627 31.40102776 -7.93442166 29.87706151 -9 27 C-9.66 27 -10.32 27 -11 27 C-12.46348729 21.32898676 -12.94129186 14.61080695 -11 9 C-8.625 6.9375 -8.625 6.9375 -6 5 C-5.195625 4.13375 -5.195625 4.13375 -4.375 3.25 C-3 2 -3 2 0 2 C0 1.34 0 0.68 0 0 Z M24 21 C25 23 25 23 25 23 Z " fill="#9D9D9D" transform="translate(118,78)"/>
<path d="M0 0 C1.08120441 1.60482502 1.08120441 1.60482502 1.08120441 3.60482502 C-1.79316456 5.04200951 -4.2721114 4.74947173 -7.48581219 4.76977253 C-8.16806315 4.77541607 -8.85031411 4.78105962 -9.55323935 4.78687418 C-11.85021441 4.80464063 -14.14716817 4.8153079 -16.44418621 4.82601643 C-18.08653831 4.83722816 -19.72888758 4.84886023 -21.37123394 4.86088276 C-25.84009499 4.89226096 -30.3089713 4.91735605 -34.77787876 4.94107962 C-39.44681754 4.96663106 -44.11572563 4.99697088 -48.78464031 5.02654743 C-56.62637863 5.07541298 -64.46813288 5.12008712 -72.30990887 5.16244221 C-81.38605373 5.21152898 -90.4621328 5.2678291 -99.53821135 5.32786334 C-107.31993917 5.37914298 -115.10168367 5.42649427 -122.88345575 5.47055089 C-127.53590268 5.49689793 -132.18833032 5.52463603 -136.84074688 5.55592442 C-141.21385679 5.58511913 -145.58696654 5.60939799 -149.96012592 5.62982464 C-151.56862986 5.63815249 -153.17712583 5.6482184 -154.78560734 5.66011333 C-156.97433741 5.67602157 -159.16300816 5.6857488 -161.35177898 5.6938448 C-163.19239029 5.70434077 -163.19239029 5.70434077 -165.07018566 5.71504879 C-167.91879559 5.60482502 -167.91879559 5.60482502 -169.91879559 4.60482502 C-169.58879559 2.95482502 -169.25879559 1.30482502 -168.91879559 -0.39517498 C-147.19664532 -0.59568616 -125.47441091 -0.77901058 -103.75194359 -0.94176292 C-93.66627841 -1.01773088 -83.58071803 -1.09936492 -73.4952116 -1.19424725 C-64.70672967 -1.27691316 -55.91823594 -1.34904039 -47.12956458 -1.40840751 C-42.47416689 -1.44022539 -37.81894805 -1.47739124 -33.16370487 -1.52716923 C-28.78487953 -1.57382521 -24.40617778 -1.60642314 -20.02715969 -1.62809658 C-18.41743185 -1.63856812 -16.80772841 -1.65423899 -15.19810581 -1.67541599 C-13.00507094 -1.70350169 -10.81271607 -1.71310369 -8.61952496 -1.71797466 C-6.77639988 -1.73318425 -6.77639988 -1.73318425 -4.89603996 -1.7487011 C-1.91879559 -1.39517498 -1.91879559 -1.39517498 0 0 Z M-161.91879559 1.60482502 C-161.91879559 1.93482502 -161.91879559 2.26482502 -161.91879559 2.60482502 C-158.94879559 2.60482502 -155.97879559 2.60482502 -152.91879559 2.60482502 C-152.91879559 2.27482502 -152.91879559 1.94482502 -152.91879559 1.60482502 C-155.88879559 1.60482502 -158.85879559 1.60482502 -161.91879559 1.60482502 Z M-151.91879559 1.60482502 C-151.91879559 1.93482502 -151.91879559 2.26482502 -151.91879559 2.60482502 C-148.94879559 2.60482502 -145.97879559 2.60482502 -142.91879559 2.60482502 C-142.91879559 2.27482502 -142.91879559 1.94482502 -142.91879559 1.60482502 C-145.88879559 1.60482502 -148.85879559 1.60482502 -151.91879559 1.60482502 Z M-135.91879559 1.60482502 C-135.91879559 1.93482502 -135.91879559 2.26482502 -135.91879559 2.60482502 C-129.64879559 2.60482502 -123.37879559 2.60482502 -116.91879559 2.60482502 C-116.91879559 2.27482502 -116.91879559 1.94482502 -116.91879559 1.60482502 C-123.18879559 1.60482502 -129.45879559 1.60482502 -135.91879559 1.60482502 Z M-100.91879559 1.60482502 C-96.91879559 2.60482502 -96.91879559 2.60482502 -96.91879559 2.60482502 Z M-58.91879559 1.60482502 C-54.91879559 2.60482502 -54.91879559 2.60482502 -54.91879559 2.60482502 Z M-23.91879559 1.60482502 C-23.91879559 1.93482502 -23.91879559 2.26482502 -23.91879559 2.60482502 C-21.93879559 2.60482502 -19.95879559 2.60482502 -17.91879559 2.60482502 C-17.91879559 2.27482502 -17.91879559 1.94482502 -17.91879559 1.60482502 C-19.89879559 1.60482502 -21.87879559 1.60482502 -23.91879559 1.60482502 Z " fill="#9B9B9B" transform="translate(184.91879558563232,117.39517498016357)"/>
<path d="M0 0 C2.12307631 2.12307631 3.01864386 3.86942484 4.3125 6.5625 C6.71368042 11.47205639 9.30255233 16.24790069 12 21 C13.14659247 19.04211104 14.2922511 17.08367517 15.4375 15.125 C16.07558594 14.03445312 16.71367188 12.94390625 17.37109375 11.8203125 C18.28644386 10.23546171 19.18151141 8.63697718 20 7 C20.66 7 21.32 7 22 7 C22.33 5.02 22.66 3.04 23 1 C26.47823115 -0.15941038 28.45895578 0.29179116 32 1 C32 1.66 32 2.32 32 3 C30.35 3.66 28.7 4.32 27 5 C27.495 5.99 27.495 5.99 28 7 C28.15306901 8.81171098 28.24946661 10.6283794 28.31640625 12.4453125 C28.35830078 13.52167969 28.40019531 14.59804687 28.44335938 15.70703125 C28.48267578 16.83496094 28.52199219 17.96289062 28.5625 19.125 C28.60568359 20.26066406 28.64886719 21.39632812 28.69335938 22.56640625 C28.7996604 25.37747768 28.90169405 28.18863945 29 31 C30.32 31.33 31.64 31.66 33 32 C33 32.66 33 33.32 33 34 C28.71 34 24.42 34 20 34 C20.66 32.35 21.32 30.7 22 29 C22.66 29 23.32 29 24 29 C23.7525 27.453125 23.7525 27.453125 23.5 25.875 C23.06678152 22.51755674 22.91764297 19.37663843 23 16 C22.34 16 21.68 16 21 16 C20.896875 16.70125 20.79375 17.4025 20.6875 18.125 C19.9033002 21.404381 18.53015875 24.00088885 17 27 C16.30028027 28.98867713 15.62335603 30.98608051 15 33 C12.03 33.495 12.03 33.495 9 34 C7.82845707 31.71070947 6.66261926 29.41881638 5.5 27.125 C5.16613281 26.47402344 4.83226562 25.82304688 4.48828125 25.15234375 C2 20.2265625 2 20.2265625 2 18 C1.34 18 0.68 18 0 18 C0 16.02 0 14.04 0 12 C-0.33 14.31 -0.66 16.62 -1 19 C-0.34 19 0.32 19 1 19 C1 22 1 25 1 28 C1.64252365 30.0078864 2.30741771 32.00882592 3 34 C2.01 34 1.02 34 0 34 C0 34.66 0 35.32 0 36 C-2.64 36 -5.28 36 -8 36 C-8.495 34.515 -8.495 34.515 -9 33 C-8.360625 32.195625 -7.72125 31.39125 -7.0625 30.5625 C-3.69596919 26.01594808 -4.68672169 20.37794426 -5 15 C-4.67 15 -4.34 15 -4 15 C-4 11.37 -4 7.74 -4 4 C-4.99 3.67 -5.98 3.34 -7 3 C-7 2.34 -7 1.68 -7 1 C-3.625 0.375 -3.625 0.375 0 0 Z M19 17 C20 19 20 19 20 19 Z " fill="#959595" transform="translate(32,78)"/>
<path d="M0 0 C6.62542977 0.10285273 10.08722027 1.43968995 14.66796875 6.16015625 C18.96352479 11.57629212 19.37581161 15.75372329 18.59765625 22.515625 C17.80699192 25.57570963 16.69617128 27.73821277 14.875 30.3125 C13.54166667 30.97916667 12.20833333 31.64583333 10.875 32.3125 C10.875 32.9725 10.875 33.6325 10.875 34.3125 C5.23414334 36.86996335 -0.01808033 37.22220954 -6.125 36.3125 C-11.22838635 33.88270299 -14.70612924 30.42462089 -17.125 25.3125 C-17.5234375 21.68359375 -17.5234375 21.68359375 -17.5 17.75 C-17.50773437 16.44933594 -17.51546875 15.14867188 -17.5234375 13.80859375 C-17.11732966 10.24519651 -16.68713644 8.76840152 -14.125 6.3125 C-13.465 6.3125 -12.805 6.3125 -12.125 6.3125 C-11.795 5.3225 -11.465 4.3325 -11.125 3.3125 C-8.625 2.1875 -8.625 2.1875 -6.125 1.3125 C-4.42604556 -0.38645444 -2.32294753 0.06013079 0 0 Z M-10.734375 8.0625 C-13.42277959 12.41227822 -12.78532487 17.39465194 -12.125 22.3125 C-10.98424451 25.54717558 -9.60122239 27.92983765 -7.125 30.3125 C-2.52080103 32.35881065 1.86931473 32.87918135 6.875 32.3125 C10.47840122 29.71004356 12.41041363 26.47500863 13.875 22.3125 C14.22655506 16.23561968 13.1560374 11.38590255 9.2578125 6.65234375 C6.20702619 3.69635589 3.50887039 3.36909557 -0.625 3 C-5.19079324 3.40766011 -7.64872511 4.70723022 -10.734375 8.0625 Z " fill="#AAAAAA" transform="translate(84.125,77.6875)"/>
<path d="M0 0 C1.08120441 1.60482502 1.08120441 1.60482502 1.08120441 3.60482502 C-1.36697766 4.82891606 -2.93978118 4.72796082 -5.67700481 4.72507954 C-6.68103848 4.7264542 -7.68507214 4.72782887 -8.71953106 4.72924519 C-9.82507839 4.72564991 -10.93062572 4.72205463 -12.06967449 4.71835041 C-13.23064144 4.71849644 -14.39160839 4.71864246 -15.58775616 4.71879292 C-19.44030888 4.71809405 -23.29281377 4.71030283 -27.14535809 4.70248127 C-29.81050988 4.700617 -32.47565899 4.69914397 -35.14081097 4.69819355 C-41.44833644 4.69508247 -47.75584463 4.68687208 -54.06336248 4.67684406 C-61.24343914 4.665676 -68.42351661 4.66017072 -75.60359979 4.65514863 C-90.37534057 4.64468929 -105.14706778 4.62709415 -119.91879559 4.60482502 C-119.91879559 4.27482502 -119.91879559 3.94482502 -119.91879559 3.60482502 C-86.25879559 3.60482502 -52.59879559 3.60482502 -17.91879559 3.60482502 C-17.58879559 2.94482502 -17.25879559 2.28482502 -16.91879559 1.60482502 C-14.79386418 1.57788927 -12.66883646 1.55845874 -10.54379559 1.54232502 C-9.36043621 1.53072346 -8.17707684 1.51912189 -6.95785809 1.50716877 C-3.91879559 1.60482502 -3.91879559 1.60482502 -1.91879559 2.60482502 C-1.91879559 1.94482502 -1.91879559 1.28482502 -1.91879559 0.60482502 C-56.69879559 0.60482502 -111.47879559 0.60482502 -167.91879559 0.60482502 C-167.58879559 2.25482502 -167.25879559 3.90482502 -166.91879559 5.60482502 C-167.90879559 5.27482502 -168.89879559 4.94482502 -169.91879559 4.60482502 C-169.58879559 2.95482502 -169.25879559 1.30482502 -168.91879559 -0.39517498 C-147.19664532 -0.59568616 -125.47441091 -0.77901058 -103.75194359 -0.94176292 C-93.66627841 -1.01773088 -83.58071803 -1.09936492 -73.4952116 -1.19424725 C-64.70672967 -1.27691316 -55.91823594 -1.34904039 -47.12956458 -1.40840751 C-42.47416689 -1.44022539 -37.81894805 -1.47739124 -33.16370487 -1.52716923 C-28.78487953 -1.57382521 -24.40617778 -1.60642314 -20.02715969 -1.62809658 C-18.41743185 -1.63856812 -16.80772841 -1.65423899 -15.19810581 -1.67541599 C-13.00507094 -1.70350169 -10.81271607 -1.71310369 -8.61952496 -1.71797466 C-6.77639988 -1.73318425 -6.77639988 -1.73318425 -4.89603996 -1.7487011 C-1.91879559 -1.39517498 -1.91879559 -1.39517498 0 0 Z " fill="#DADADA" transform="translate(184.91879558563232,117.39517498016357)"/>
<path d="M0 0 C5.28358712 5.28358712 7.43198222 12.88361163 9 20 C9.391875 20.886875 9.78375 21.77375 10.1875 22.6875 C11.1767165 25.50296236 10.80874195 27.16940318 10 30 C5 22.5 5 22.5 5 19 C4.01 19.33 3.02 19.66 2 20 C2 19.34 2 18.68 2 18 C1.34 18 0.68 18 0 18 C0 16.02 0 14.04 0 12 C-0.33 14.31 -0.66 16.62 -1 19 C-0.34 19 0.32 19 1 19 C1 22 1 25 1 28 C1.64252365 30.0078864 2.30741771 32.00882592 3 34 C2.01 34 1.02 34 0 34 C0 34.66 0 35.32 0 36 C-2.64 36 -5.28 36 -8 36 C-8.495 34.515 -8.495 34.515 -9 33 C-8.360625 32.195625 -7.72125 31.39125 -7.0625 30.5625 C-3.69596919 26.01594808 -4.68672169 20.37794426 -5 15 C-4.67 15 -4.34 15 -4 15 C-4 11.37 -4 7.74 -4 4 C-4.99 3.67 -5.98 3.34 -7 3 C-7 2.34 -7 1.68 -7 1 C-3.625 0.375 -3.625 0.375 0 0 Z " fill="#6D6D6D" transform="translate(32,78)"/>
<path d="M0 0 C-0.30975468 1.77131561 -0.62290425 3.54203778 -0.9375 5.3125 C-1.19853516 6.79169922 -1.19853516 6.79169922 -1.46484375 8.30078125 C-2 11 -2 11 -3 14 C-8.38717295 17.59144863 -15.71141817 16.49679796 -22 16 C-26.59081989 14.78691943 -29.04694887 12.27232664 -31.4375 8.25 C-31.953125 7.1775 -32.46875 6.105 -33 5 C-32.34 4.67 -31.68 4.34 -31 4 C-30.4121875 5.1446875 -30.4121875 5.1446875 -29.8125 6.3125 C-27.81617669 9.2725656 -26.18118419 10.45019232 -23 12 C-22.34 12 -21.68 12 -21 12 C-21.99 11.01 -22.98 10.02 -24 9 C-23.34 8.67 -22.68 8.34 -22 8 C-19.97481509 8.9479589 -17.97522846 9.95191959 -16 11 C-15.01 11.33 -14.02 11.66 -13 12 C-11.63266972 11.04701223 -10.29735507 10.04625409 -9 9 C-8.34 9 -7.68 9 -7 9 C-9.03802135 4.93975679 -9.03802135 4.93975679 -13 3 C-13 2.01 -13 1.02 -13 0 C-8.38926889 -1.29676812 -4.66159911 -0.71109139 0 0 Z " fill="#E8E8E8" transform="translate(176,98)"/>
<path d="M0 0 C0 0.66 0 1.32 0 2 C-1.65 2.66 -3.3 3.32 -5 4 C-4.67 4.66 -4.34 5.32 -4 6 C-3.84693099 7.81171098 -3.75053339 9.6283794 -3.68359375 11.4453125 C-3.62075195 13.05986328 -3.62075195 13.05986328 -3.55664062 14.70703125 C-3.51732422 15.83496094 -3.47800781 16.96289062 -3.4375 18.125 C-3.39431641 19.26066406 -3.35113281 20.39632812 -3.30664062 21.56640625 C-3.2003396 24.37747768 -3.09830595 27.18863945 -3 30 C-1.68 30.33 -0.36 30.66 1 31 C1 31.66 1 32.32 1 33 C-3.29 33 -7.58 33 -12 33 C-11.34 31.35 -10.68 29.7 -10 28 C-9.34 28 -8.68 28 -8 28 C-8.24556641 26.60587891 -8.24556641 26.60587891 -8.49609375 25.18359375 C-9.21479176 20.15270771 -9.10756313 15.13383491 -9.0625 10.0625 C-9.05798828 9.09248047 -9.05347656 8.12246094 -9.04882812 7.12304688 C-9.0371315 4.7486324 -9.02074086 2.37434979 -9 0 C-5.93109813 -1.53445094 -3.29905734 -0.54984289 0 0 Z " fill="#636363" transform="translate(64,79)"/>
<path d="M0 0 C1.32 0 2.64 0 4 0 C4 3.96 4 7.92 4 12 C4.99 12.33 5.98 12.66 7 13 C8.99396257 15.66083969 11 18.61242325 11 22 C14.63 22.33 18.26 22.66 22 23 C22 23.33 22 23.66 22 24 C11.42396664 24.86061754 11.42396664 24.86061754 6.8125 21.625 C5.4203125 20.325625 5.4203125 20.325625 4 19 C4 18.34 4 17.68 4 17 C3.01 16.67 2.02 16.34 1 16 C0 15 0 15 -0.09765625 11.62109375 C-0.09098369 10.22652923 -0.07902532 8.83198257 -0.0625 7.4375 C-0.05798828 6.72658203 -0.05347656 6.01566406 -0.04882812 5.28320312 C-0.03700864 3.52209987 -0.01907263 1.76103964 0 0 Z " fill="#595959" transform="translate(67,88)"/>
<path d="M0 0 C1.32 1.65 2.64 3.3 4 5 C3.525625 5.45375 3.05125 5.9075 2.5625 6.375 C0.90972192 7.93258204 0.90972192 7.93258204 0 10 C-0.66 10 -1.32 10 -2 10 C-2 10.66 -2 11.32 -2 12 C-7.63550113 14.55503525 -12.89899652 14.92105472 -19 14 C-22.15683233 12.47218954 -24.7554062 10.7133178 -27 8 C-27 7.01 -27 6.02 -27 5 C-26.53851563 5.42152344 -26.07703125 5.84304687 -25.6015625 6.27734375 C-20.34020839 10.69646528 -15.91748924 12.31014084 -9 12 C-8.67 11.67 -8.34 11.34 -8 11 C-10.97851562 11.04882812 -10.97851562 11.04882812 -13.95703125 11.09765625 C-16 11 -16 11 -19 10 C-18.67 9.34 -18.34 8.68 -18 8 C-17.38511719 8.0721875 -16.77023438 8.144375 -16.13671875 8.21875 C-15.32847656 8.3115625 -14.52023438 8.404375 -13.6875 8.5 C-12.88699219 8.5928125 -12.08648437 8.685625 -11.26171875 8.78125 C-8.88103445 9.04813463 -8.88103445 9.04813463 -6 9 C-3.17785741 6.17785741 -1.27054318 3.81162953 0 0 Z " fill="#E9E9E9" transform="translate(97,100)"/>
<path d="M0 0 C2.41854446 -0.13536629 4.82949783 -0.23420279 7.25 -0.3125 C8.27287109 -0.3753418 8.27287109 -0.3753418 9.31640625 -0.43945312 C13.11236577 -0.53158806 14.6566066 -0.32165964 17.46875 2.3125 C19.26413166 5.46357802 19.33215091 7.42937777 19 11 C18.34 11 17.68 11 17 11 C16.9175 10.38125 16.835 9.7625 16.75 9.125 C16.19392091 6.82618538 16.19392091 6.82618538 14 5.8125 C13.34 5.544375 12.68 5.27625 12 5 C11.67 4.67 11.34 4.34 11 4 C9.48530552 3.76807135 7.96245438 3.58784762 6.4375 3.4375 C5.61121094 3.35371094 4.78492188 3.26992187 3.93359375 3.18359375 C3.29550781 3.12300781 2.65742188 3.06242187 2 3 C1.67 3.66 1.34 4.32 1 5 C0.071875 5.12375 0.071875 5.12375 -0.875 5.25 C-3.36801952 5.8695627 -3.36801952 5.8695627 -4.75 9.0625 C-5.1625 10.031875 -5.575 11.00125 -6 12 C-6.99 11.34 -7.98 10.68 -9 10 C-8 8 -7 6 -6 4 C-5.34 4 -4.68 4 -4 4 C-3.67 3.34 -3.34 2.68 -3 2 C-2.01 2 -1.02 2 0 2 C0 1.34 0 0.68 0 0 Z " fill="#BBBBBB" transform="translate(154,78)"/>
<path d="M0 0 C0.33 0 0.66 0 1 0 C1.03738281 0.64066406 1.07476562 1.28132813 1.11328125 1.94140625 C1.54556598 7.62891709 2.45023108 11.90046215 5 17 C5.33 17.7425 5.66 18.485 6 19.25 C7.0990843 21.17339752 8.36640803 22.51491639 10 24 C4.93982644 23.5535141 2.56694486 21.404811 -1 18 C-2.74448199 12.76655404 -2.67853621 7.12042565 -1 1.875 C-0.67 1.25625 -0.34 0.6375 0 0 Z " fill="#505050" transform="translate(146,87)"/>
<path d="M0 0 C0.99808262 3.21937927 1.01849014 5.84301752 0.6875 9.1875 C0.56955078 10.50814453 0.56955078 10.50814453 0.44921875 11.85546875 C0.30097656 12.56316406 0.15273437 13.27085938 0 14 C-0.99 14.495 -0.99 14.495 -2 15 C-2.66 14.34 -3.32 13.68 -4 13 C-4.66 13 -5.32 13 -6 13 C-5.95875 14.27875 -5.9175 15.5575 -5.875 16.875 C-5.8046875 19.0546875 -5.8046875 19.0546875 -6 21 C-6.66 21.66 -7.32 22.32 -8 23 C-8 19.37 -8 15.74 -8 12 C-9.32 12 -10.64 12 -12 12 C-11.835 12.7425 -11.67 13.485 -11.5 14.25 C-11 17 -11 17 -11 21 C-11.99 20.67 -12.98 20.34 -14 20 C-13.67 19.67 -13.34 19.34 -13 19 C-13.10417827 16.99660454 -13.10417827 16.99660454 -14 15 C-15.9837767 13.71563266 -15.9837767 13.71563266 -18 13 C-17.67 12.01 -17.34 11.02 -17 10 C-12.59085217 8.89771304 -8.51617599 8.92345464 -4 9 C-3.67 8.34 -3.34 7.68 -3 7 C-2.34 7 -1.68 7 -1 7 C-0.67 4.69 -0.34 2.38 0 0 Z M-2 11 C-1 13 -1 13 -1 13 Z " fill="#D7D7D7" transform="translate(144,88)"/>
<path d="M0 0 C0.97710937 -0.01417969 1.95421875 -0.02835937 2.9609375 -0.04296875 C5.625 0.1875 5.625 0.1875 8.625 2.1875 C6.315 2.1875 4.005 2.1875 1.625 2.1875 C1.625 2.5175 1.625 2.8475 1.625 3.1875 C1.02171875 3.27386719 0.4184375 3.36023438 -0.203125 3.44921875 C-4.09776364 4.13392135 -6.78160533 4.7243627 -9.9375 7.1875 C-11.74932515 10.96870031 -11.60517809 13.84991776 -11.3203125 17.98046875 C-11.375 20.1875 -11.375 20.1875 -13.375 22.1875 C-13.375 18.2275 -13.375 14.2675 -13.375 10.1875 C-14.365 9.8575 -15.355 9.5275 -16.375 9.1875 C-15.715 8.1975 -15.055 7.2075 -14.375 6.1875 C-13.715 6.1875 -13.055 6.1875 -12.375 6.1875 C-12.045 5.1975 -11.715 4.2075 -11.375 3.1875 C-8.875 2.0625 -8.875 2.0625 -6.375 1.1875 C-4.64526886 -0.54223114 -2.34983037 0.01541883 0 0 Z " fill="#C5C5C5" transform="translate(84.375,77.8125)"/>
<path d="M0 0 C3.63 0 7.26 0 11 0 C10.34 0.66 9.68 1.32 9 2 C8.53837573 4.43252661 8.53837573 4.43252661 8.375 7.125 C8.30023438 8.03507812 8.22546875 8.94515625 8.1484375 9.8828125 C8.09945312 10.58148438 8.05046875 11.28015625 8 12 C4.71480525 13.09506492 2.26336585 13.09960608 -1.1875 13.0625 C-2.81751953 13.04896484 -2.81751953 13.04896484 -4.48046875 13.03515625 C-5.31191406 13.02355469 -6.14335937 13.01195313 -7 13 C-7 12.67 -7 12.34 -7 12 C-5.7625 11.71125 -4.525 11.4225 -3.25 11.125 C-0.27551258 10.38665206 2.333856 9.55525067 5 8 C4.81584568 5.05908413 4.81584568 5.05908413 4 2 C2.68 1.34 1.36 0.68 0 0 Z " fill="#858585" transform="translate(164,99)"/>
<path d="M0 0 C0.66 0 1.32 0 2 0 C0.1668733 5.99932374 -2.07321751 11.44920563 -5 17 C-7.47859908 14.7991151 -8.61210366 12.93627031 -9.6875 9.8125 C-9.93886719 9.09707031 -10.19023438 8.38164063 -10.44921875 7.64453125 C-10.63097656 7.10183594 -10.81273437 6.55914062 -11 6 C-10.34 5.67 -9.68 5.34 -9 5 C-8.01 6.65 -7.02 8.3 -6 10 C-5.59007812 9.278125 -5.18015625 8.55625 -4.7578125 7.8125 C-3.94957031 6.4203125 -3.94957031 6.4203125 -3.125 5 C-2.59132813 4.071875 -2.05765625 3.14375 -1.5078125 2.1875 C-0.76144531 1.1046875 -0.76144531 1.1046875 0 0 Z " fill="#EDEDED" transform="translate(50,89)"/>
<path d="M0 0 C2.38854824 3.58282235 2.26898802 5.31393033 2.25 9.5625 C2.25773437 11.29693359 2.25773437 11.29693359 2.265625 13.06640625 C2 16 2 16 0 18 C1.65 18.33 3.3 18.66 5 19 C5 19.66 5 20.32 5 21 C2.36 21 -0.28 21 -3 21 C-3.33 20.01 -3.66 19.02 -4 18 C-3.360625 17.195625 -2.72125 16.39125 -2.0625 15.5625 C1.30403081 11.01594808 0.31327831 5.37794426 0 0 Z " fill="#F3F3F3" transform="translate(27,93)"/>
<path d="M0 0 C0.8353125 1.1446875 0.8353125 1.1446875 1.6875 2.3125 C3.98412874 4.98155503 5.87247757 6.43623879 9 8 C9.66 8 10.32 8 11 8 C10.01 7.01 9.02 6.02 8 5 C8.66 4.67 9.32 4.34 10 4 C12.03273074 4.93166826 14.03384339 5.9349985 16 7 C16.66 7.33 17.32 7.66 18 8 C16.75579353 8.5345256 15.50429064 9.05208611 14.25 9.5625 C13.55390625 9.85253906 12.8578125 10.14257812 12.140625 10.44140625 C9.63310709 11.0957403 8.40189097 10.92912655 6 10 C2.91411305 7.28148054 0.56096761 4.83146596 -1 1 C-0.67 0.67 -0.34 0.34 0 0 Z " fill="#E1E1E1" transform="translate(144,102)"/>
<path d="M0 0 C0.33 5.28 0.66 10.56 1 16 C-2 15 -2 15 -4 12 C-4.30078125 9.84375 -4.30078125 9.84375 -4.3125 7.5 C-4.32925781 6.7265625 -4.34601563 5.953125 -4.36328125 5.15625 C-3.97238561 2.83609521 -2.76877872 0 0 0 Z " fill="#424242" transform="translate(110,88)"/>
<path d="M0 0 C0.66 0 1.32 0 2 0 C2.9821994 3.27626375 3.11580914 6.22788119 3.09765625 9.640625 C3.09282227 11.24550781 3.09282227 11.24550781 3.08789062 12.8828125 C3.07951172 13.99398437 3.07113281 15.10515625 3.0625 16.25 C3.05798828 17.37664062 3.05347656 18.50328125 3.04882812 19.6640625 C3.03705397 22.44276217 3.0206084 25.22135409 3 28 C4.32 28.33 5.64 28.66 7 29 C7 29.66 7 30.32 7 31 C3.7 31 0.4 31 -3 31 C-2.01 30.01 -1.02 29.02 0 28 C0.41513763 24.9969171 0.41513763 24.9969171 0.29296875 21.58203125 C0.28330078 20.32841797 0.27363281 19.07480469 0.26367188 17.78320312 C0.23853516 16.47287109 0.21339844 15.16253906 0.1875 13.8125 C0.17244967 12.47722837 0.15876187 11.14194063 0.14648438 9.80664062 C0.11107694 6.53735424 0.0616889 3.26887907 0 0 Z " fill="#575757" transform="translate(28,81)"/>
<path d="M0 0 C2.5549636 2.4637149 2.98051721 3.66229831 3.1875 7.25 C3.125625 8.1575 3.06375 9.065 3 10 C2.34 10 1.68 10 1 10 C0.9175 9.38125 0.835 8.7625 0.75 8.125 C0.21402157 5.85609195 0.21402157 5.85609195 -1.8125 5 C-2.534375 4.67 -3.25625 4.34 -4 4 C-5.37086915 2.70529025 -6.71340837 1.37849103 -8 0 C-4.97121688 -0.97353743 -2.97153543 -1.24612776 0 0 Z " fill="#929292" transform="translate(170,79)"/>
<path d="M0 0 C1.58246707 -0.08153933 3.16616273 -0.13943557 4.75 -0.1875 C6.07257813 -0.23970703 6.07257813 -0.23970703 7.421875 -0.29296875 C10.51517432 0.05854254 11.8285133 0.78830058 14 3 C14.25 6.6875 14.25 6.6875 14 10 C13.34 10 12.68 10 12 10 C11.7525 9.21625 11.505 8.4325 11.25 7.625 C10.24021043 4.95803866 10.24021043 4.95803866 8.25 3.75 C5.52512264 2.84170755 2.84230974 2.38758769 0 2 C0 1.34 0 0.68 0 0 Z " fill="#7F7F7F" transform="translate(122,78)"/>
<path d="M0 0 C1.32 1.65 2.64 3.3 4 5 C3.525625 5.45375 3.05125 5.9075 2.5625 6.375 C0.90972192 7.93258204 0.90972192 7.93258204 0 10 C-0.66 10 -1.32 10 -2 10 C-2 10.66 -2 11.32 -2 12 C-3.65 11.67 -5.3 11.34 -7 11 C-5.47402865 8.96537153 -3.94906732 6.93535468 -2.375 4.9375 C-0.82019037 2.94584047 -0.82019037 2.94584047 0 0 Z " fill="#B7B7B7" transform="translate(97,100)"/>
<path d="M0 0 C0.66 0 1.32 0 2 0 C2 3.96 2 7.92 2 12 C2.99 12.33 3.98 12.66 5 13 C5.33 12.34 5.66 11.68 6 11 C7.32 11.33 8.64 11.66 10 12 C10 12.66 10 13.32 10 14 C5.71 14 1.42 14 -3 14 C-2.34 12.35 -1.68 10.7 -1 9 C-0.34 9 0.32 9 1 9 C0.835 7.88625 0.67 6.7725 0.5 5.625 C0 2 0 2 0 0 Z " fill="#A6A6A6" transform="translate(55,98)"/>
<path d="M0 0 C6.28842188 -0.25153688 10.73149092 0.48766061 16 4 C15.67 5.65 15.34 7.3 15 9 C14.773125 8.360625 14.54625 7.72125 14.3125 7.0625 C13.19719196 4.79517568 13.19719196 4.79517568 10.875 4.4375 C9.92625 4.293125 8.9775 4.14875 8 4 C5.29935986 3.07807461 2.65979119 2.03686775 0 1 C0 0.67 0 0.34 0 0 Z " fill="#575757" transform="translate(82,79)"/>
<path d="M0 0 C2.64 0 5.28 0 8 0 C7.01 0.495 7.01 0.495 6 1 C6 4.63 6 8.26 6 12 C4.68 12 3.36 12 2 12 C2.02320313 11.30132812 2.04640625 10.60265625 2.0703125 9.8828125 C2.08835938 8.97273438 2.10640625 8.06265625 2.125 7.125 C2.15980469 5.76761719 2.15980469 5.76761719 2.1953125 4.3828125 C2.24324836 1.81193006 2.24324836 1.81193006 0 0 Z " fill="#3E3E3E" transform="translate(130,99)"/>
<path d="M0 0 C1.92050612 0.39859561 3.83635712 0.81965926 5.75 1.25 C6.81734375 1.48203125 7.8846875 1.7140625 8.984375 1.953125 C12.26814405 3.09308628 13.77074995 4.38117228 16 7 C11.25 5.125 11.25 5.125 9 4 C4.17387057 3.72156946 0.50092174 4.24354273 -4 6 C-4 4.68 -4 3.36 -4 2 C-2.68 2 -1.36 2 0 2 C0 1.34 0 0.68 0 0 Z " fill="#C4C4C4" transform="translate(118,78)"/>
<path d="M0 0 C0.99 0 1.98 0 3 0 C7.07877462 8.03501094 7.07877462 8.03501094 6.75 12.0625 C6.5025 12.701875 6.255 13.34125 6 14 C4.45372329 11.68058494 3.13817172 9.47020248 1.875 7 C1.52179687 6.319375 1.16859375 5.63875 0.8046875 4.9375 C0 3 0 3 0 0 Z " fill="#303030" transform="translate(36,94)"/>
<path d="M0 0 C2 2 2 2 2.1953125 4.8203125 C2.16050781 6.45613281 2.16050781 6.45613281 2.125 8.125 C2.10695313 9.22070312 2.08890625 10.31640625 2.0703125 11.4453125 C2.04710937 12.28835937 2.02390625 13.13140625 2 14 C1.67 13.34 1.34 12.68 1 12 C0.34 12 -0.32 12 -1 12 C-1.33 12.99 -1.66 13.98 -2 15 C-3.25541557 11.23375329 -2.37061958 9.62811066 -1 6 C-1.66 5.67 -2.32 5.34 -3 5 C-2.67 4.34 -2.34 3.68 -2 3 C-1.34 3 -0.68 3 0 3 C0 2.01 0 1.02 0 0 Z " fill="#DBDBDB" transform="translate(54,82)"/>
<path d="M0 0 C0.66 0 1.32 0 2 0 C5 5.75 5 5.75 5 8 C3.68 8 2.36 8 1 8 C0.67 9.32 0.34 10.64 0 12 C-0.33 11.34 -0.66 10.68 -1 10 C-1.66 10 -2.32 10 -3 10 C-3 8.35 -3 6.7 -3 5 C-2.34 4.67 -1.68 4.34 -1 4 C-0.01 4.99 0.98 5.98 2 7 C1.34 4.69 0.68 2.38 0 0 Z " fill="#D1D1D1" transform="translate(35,86)"/>
<path d="M0 0 C0.54527344 0.2165625 1.09054688 0.433125 1.65234375 0.65625 C6.69310922 2.51745571 10.78176535 3.27956111 16.15234375 2.91015625 C18 3 18 3 20 5 C17.41603321 5.08112454 14.83462432 5.14054748 12.25 5.1875 C11.15558594 5.22520508 11.15558594 5.22520508 10.0390625 5.26367188 C6.7323069 5.308764 4.41067943 5.22638385 1.484375 3.61328125 C0 2 0 2 0 0 Z " fill="#F8F8F8" transform="translate(113,109)"/>
<path d="M0 0 C3.63 0 7.26 0 11 0 C10.34 0.66 9.68 1.32 9 2 C8.53993654 4.20250992 8.53993654 4.20250992 8.375 6.625 C8.30023438 7.44226563 8.22546875 8.25953125 8.1484375 9.1015625 C8.09945312 9.72804688 8.05046875 10.35453125 8 11 C7.34 10.67 6.68 10.34 6 10 C6 7.36 6 4.72 6 2 C3.03 1.505 3.03 1.505 0 1 C0 0.67 0 0.34 0 0 Z " fill="#2F2F2F" transform="translate(164,99)"/>
<path d="M0 0 C0.99 0.33 1.98 0.66 3 1 C3 4 3 7 3 10 C3.33 10.99 3.66 11.98 4 13 C2.68 13 1.36 13 0 13 C0 8.71 0 4.42 0 0 Z " fill="#E3E3E3" transform="translate(30,96)"/>
<path d="M0 0 C1.32 0 2.64 0 4 0 C3.83371094 0.55429688 3.66742188 1.10859375 3.49609375 1.6796875 C2.77357485 5.05902788 3.03264077 8.31999522 3.16015625 11.7578125 C3 14 3 14 1 16 C1 12.04 1 8.08 1 4 C0.01 3.67 -0.98 3.34 -2 3 C-1.34 2.01 -0.68 1.02 0 0 Z " fill="#ABABAB" transform="translate(70,84)"/>
<path d="M0 0 C3.42931954 3.7559214 4.56429083 8.23466745 6 13 C5.01 13.495 5.01 13.495 4 14 C3.13116294 12.42466914 2.28040932 10.83935491 1.4375 9.25 C0.96183594 8.36828125 0.48617187 7.4865625 -0.00390625 6.578125 C-1.07998186 3.79298812 -1.06528748 2.73019786 0 0 Z " fill="#E4E4E4" transform="translate(36,97)"/>
<path d="M0 0 C1.2355957 1.62036133 1.2355957 1.62036133 1.2355957 3.62036133 C0.2455957 3.29036133 -0.7444043 2.96036133 -1.7644043 2.62036133 C-1.7644043 1.96036133 -1.7644043 1.30036133 -1.7644043 0.62036133 C-7.7044043 0.62036133 -13.6444043 0.62036133 -19.7644043 0.62036133 C-19.7644043 0.29036133 -19.7644043 -0.03963867 -19.7644043 -0.37963867 C-16.82736905 -0.62813401 -13.89154098 -0.85412152 -10.9519043 -1.06713867 C-9.70183594 -1.17638672 -9.70183594 -1.17638672 -8.42651367 -1.2878418 C-7.62407227 -1.34262695 -6.82163086 -1.39741211 -5.99487305 -1.45385742 C-5.25648193 -1.5114624 -4.51809082 -1.56906738 -3.75732422 -1.62841797 C-1.7644043 -1.37963867 -1.7644043 -1.37963867 0 0 Z " fill="#E2E2E2" transform="translate(184.764404296875,117.379638671875)"/>
<path d="M0 0 C1.32 0.99 2.64 1.98 4 3 C4 2.34 4 1.68 4 1 C4.66 1 5.32 1 6 1 C6.33 2.65 6.66 4.3 7 6 C5.02 6.99 5.02 6.99 3 8 C2.67 6.68 2.34 5.36 2 4 C1.34 4 0.68 4 0 4 C0 2.68 0 1.36 0 0 Z " fill="#7E7E7E" transform="translate(107,101)"/>
<path d="M0 0 C0.99 0 1.98 0 3 0 C3.33 1.98 3.66 3.96 4 6 C2.02 6.33 0.04 6.66 -2 7 C-1.34 4.69 -0.68 2.38 0 0 Z " fill="#7D7D7D" transform="translate(43,105)"/>
<path d="M0 0 C0.33 0 0.66 0 1 0 C1.08121924 1.60332791 1.13929134 3.20784026 1.1875 4.8125 C1.23970703 6.15248047 1.23970703 6.15248047 1.29296875 7.51953125 C0.95081002 10.41647515 0.24606427 11.22555028 -2 13 C-1.85966889 11.02043559 -1.7125877 9.04134859 -1.5625 7.0625 C-1.48128906 5.96035156 -1.40007812 4.85820313 -1.31640625 3.72265625 C-1 1 -1 1 0 0 Z " fill="#181818" transform="translate(100,91)"/>
<path d="M0 0 C1.32 0.33 2.64 0.66 4 1 C2.68 3.31 1.36 5.62 0 8 C-0.99 7.34 -1.98 6.68 -3 6 C-2 4 -1 2 0 0 Z " fill="#A0A0A0" transform="translate(148,82)"/>
<path d="M0 0 C1.18851563 0.10183594 2.37703125 0.20367187 3.6015625 0.30859375 C4.51679688 0.39238281 5.43203125 0.47617188 6.375 0.5625 C6.375 0.8925 6.375 1.2225 6.375 1.5625 C1.755 1.8925 -2.865 2.2225 -7.625 2.5625 C-7.955 1.9025 -8.285 1.2425 -8.625 0.5625 C-5.68113377 -0.90943312 -3.25109964 -0.28686173 0 0 Z " fill="#B8B8B8" transform="translate(25.625,119.4375)"/>
<path d="M0 0 C0.99 0 1.98 0 3 0 C4.35439668 2.70879335 4.06501451 5.00933268 4 8 C3.34 8 2.68 8 2 8 C0.74335022 5.09399739 0 3.20395416 0 0 Z " fill="#848484" transform="translate(169,81)"/>
<path d="M0 0 C0.66 0 1.32 0 2 0 C2 3.96 2 7.92 2 12 C0.68 11.34 -0.64 10.68 -2 10 C-1.01 9.67 -0.02 9.34 1 9 C0.835 7.88625 0.67 6.7725 0.5 5.625 C0 2 0 2 0 0 Z " fill="#C4C4C4" transform="translate(55,98)"/>
<path d="M0 0 C0.66 0.33 1.32 0.66 2 1 C1.34 4.63 0.68 8.26 0 12 C-2 10 -2 10 -2.01171875 7.87109375 C-1.90472656 7.06800781 -1.79773438 6.26492187 -1.6875 5.4375 C-1.58824219 4.63183594 -1.48898438 3.82617188 -1.38671875 2.99609375 C-1 1 -1 1 0 0 Z " fill="#616161" transform="translate(99,88)"/>
<path d="M0 0 C2.64 0 5.28 0 8 0 C7.34 0.66 6.68 1.32 6 2 C5.59952556 4.32275177 5.2602896 6.65739357 5 9 C4.67 9 4.34 9 4 9 C4 6.69 4 4.38 4 2 C2.68 1.34 1.36 0.68 0 0 Z " fill="#282828" transform="translate(130,99)"/>
<path d="M0 0 C1.5625 1.1875 1.5625 1.1875 3 3 C2.6875 5.6875 2.6875 5.6875 2 8 C0.26216175 5.39324263 -0.50215905 3.98704569 -1 1 C-0.67 0.67 -0.34 0.34 0 0 Z " fill="#232323" transform="translate(40,100)"/>
<path d="M0 0 C3 1 3 1 3 1 Z " fill="#FFFFFF" transform="translate(123,115)"/>
<path d="M0 0 C3 1 3 1 3 1 Z " fill="#F3F3F3" transform="translate(28,77)"/>
<path d="M0 0 C2 1 2 1 2 1 Z " fill="#FFFFFF" transform="translate(160,114)"/>
<path d="" fill="#FFFFFF" transform="translate(0,0)"/>
<path d="" fill="#FFFFFF" transform="translate(0,0)"/>
<path d="" fill="#FFFFFF" transform="translate(0,0)"/>
<path d="" fill="#EAEAEA" transform="translate(0,0)"/>
<path d="" fill="#FFFFFF" transform="translate(0,0)"/>
<path d="" fill="#FFFFFF" transform="translate(0,0)"/>
<path d="" fill="#FFFFFF" transform="translate(0,0)"/>
<path d="" fill="#FFFFFF" transform="translate(0,0)"/>
</svg>
